<?xml version="1.0"?>
<svg xmlns="http://www.w3.org/2000/svg" height="512px" viewBox="0 0 512 512" width="512px" class=""><g><path d="m256 108c-111.382812 0-202 90.617188-202 202s90.617188 202 202 202 202-90.617188 202-202-90.617188-202-202-202zm0 374c-94.839844 0-172-77.160156-172-172s77.160156-172 172-172 172 77.160156 172 172-77.160156 172-172 172zm0 0" data-original="#000000" class="active-path" data-old_color="#000000" fill="#FFFFFF"/><path d="m256 30c60.367188 0 117.121094 23.507812 159.804688 66.191406l21.214843-21.210937c-48.351562-48.351563-112.640625-74.980469-181.019531-74.980469s-132.667969 26.628906-181.019531 74.980469l21.214843 21.210937c42.683594-42.683594 99.4375-66.191406 159.804688-66.191406zm0 0" data-original="#000000" class="active-path" data-old_color="#000000" fill="#FFFFFF"/><path d="m0 130h90v30h-90zm0 0" data-original="#000000" class="active-path" data-old_color="#000000" fill="#FFFFFF"/><path d="m482 130v-30h-30v30h-30v30h30v30h30v-30h30v-30zm0 0" data-original="#000000" class="active-path" data-old_color="#000000" fill="#FFFFFF"/><path d="m256 168c-78.300781 0-142 63.699219-142 142s63.699219 142 142 142 142-63.699219 142-142-63.699219-142-142-142zm0 254c-61.757812 0-112-50.242188-112-112s50.242188-112 112-112c25.480469 0 49 8.558594 67.839844 22.949219l-34.605469 34.605469 21.214844 21.210937 34.605469-34.605469c14.386718 18.839844 22.945312 42.359375 22.945312 67.839844 0 61.757812-50.242188 112-112 112zm0 0" data-original="#000000" class="active-path" data-old_color="#000000" fill="#FFFFFF"/></g> </svg>
