<svg height="512" viewBox="0 0 64 64" width="512" xmlns="http://www.w3.org/2000/svg"><path d="m61.8 9.4-6-8a1.036 1.036 0 0 0 -1.6 0l-6 8a1 1 0 0 0 -.2.6v8h-9v-8a1 1 0 0 0 -.2-.6l-6-8a1.036 1.036 0 0 0 -1.6 0l-6 8a1 1 0 0 0 -.2.6v8h-9v-8a1 1 0 0 0 -.2-.6l-6-8a1.036 1.036 0 0 0 -1.6 0l-6 8a1 1 0 0 0 -.2.6v52a1 1 0 0 0 1 1h12a1 1 0 0 0 1-1v-10h9v10a1 1 0 0 0 1 1h12a1 1 0 0 0 1-1v-10h9v10a1 1 0 0 0 1 1h12a1 1 0 0 0 1-1v-52a1 1 0 0 0 -.2-.6zm-22.8 22.6h9v6h-9zm9-12v10h-9v-10zm-32 12h9v6h-9zm9-12v10h-9v-10zm-11 41h-10v-50.667l5-6.666 5 6.666zm2-11v-10h9v10zm21 11h-10v-50.667l5-6.666 5 6.666zm2-11v-10h9v10zm21 11h-10v-50.667l5-6.666 5 6.666z"/><path d="m6 57a1 1 0 0 0 -1 1v1a1 1 0 0 0 2 0v-1a1 1 0 0 0 -1-1z"/><path d="m6 45a1 1 0 0 0 -1 1v9a1 1 0 0 0 2 0v-9a1 1 0 0 0 -1-1z"/></svg>